<?xml version="1.0" standalone="no"?>
<!DOCTYPE svg PUBLIC "-//W3C//DTD SVG 20010904//EN"
 "http://www.w3.org/TR/2001/REC-SVG-20010904/DTD/svg10.dtd">
<svg version="1.0" xmlns="http://www.w3.org/2000/svg"
 width="725.000000pt" height="157.000000pt" viewBox="0 0 725.000000 157.000000"
 preserveAspectRatio="xMidYMid meet">
<metadata>
Created by potrace 1.16, written by Peter Selinger 2001-2019
</metadata>
<g transform="translate(0.000000,157.000000) scale(0.100000,-0.100000)"
fill="#8077fe" stroke="none">
<path d="M6166 1385 c-25 -47 -46 -89 -46 -95 0 -6 39 -10 100 -10 61 0 100 4
100 10 0 16 -91 180 -100 180 -5 0 -29 -38 -54 -85z" fill="#8077fe"/>
<path d="M648 1240 l-3 -200 -35 47 c-51 68 -105 93 -199 93 -63 0 -86 -5
-137 -29 -130 -62 -196 -190 -196 -386 0 -155 33 -246 117 -331 66 -66 126
-87 234 -83 90 5 141 31 191 101 l30 41 0 -66 0 -67 95 0 95 0 0 540 0 540
-95 0 -95 0 -2 -200z m-95 -237 c31 -16 70 -71 87 -127 20 -62 9 -211 -19
-269 -56 -115 -195 -138 -282 -47 -60 62 -83 183 -58 299 29 138 154 204 272
144z" fill="#8077fe"/>
<path d="M3770 1275 l0 -95 -55 0 -55 0 0 -75 0 -75 55 0 55 0 0 -243 c0 -133
4 -257 10 -276 27 -94 113 -154 223 -155 89 -1 139 11 133 32 -2 9 -10 43 -16
75 l-11 57 -53 0 c-90 0 -90 1 -94 276 l-3 234 80 0 81 0 0 75 0 75 -80 0 -80
0 0 95 0 95 -95 0 -95 0 0 -95z" fill="#8077fe"/>
<path d="M6127 1254 c-4 -4 -7 -169 -7 -366 l0 -358 100 0 100 0 -2 363 -3
362 -90 3 c-50 1 -94 0 -98 -4z" fill="#8077fe"/>
<path d="M1331 1158 c-30 -15 -54 -37 -75 -72 l-31 -49 -3 66 -3 67 -89 0 -90
0 0 -405 0 -405 95 0 95 0 0 258 c0 252 1 260 23 303 35 66 83 90 175 87 l72
-3 0 88 0 87 -62 0 c-45 0 -76 -6 -107 -22z" fill="#8077fe"/>
<path d="M1804 1160 c-74 -24 -144 -82 -174 -146 -12 -25 -20 -48 -16 -51 3
-4 42 -12 86 -18 l80 -12 26 34 c94 124 315 68 280 -71 -8 -31 -40 -43 -156
-56 -172 -20 -247 -46 -299 -106 -78 -88 -66 -243 25 -323 111 -97 318 -86
409 23 l35 41 0 -57 0 -58 91 0 90 0 -3 318 c-3 305 -4 319 -25 358 -27 50
-72 90 -133 117 -67 30 -234 34 -316 7z m284 -493 c-3 -61 -8 -80 -30 -109
-40 -53 -87 -71 -170 -66 -62 3 -73 7 -94 31 -36 43 -34 107 6 140 16 14 53
30 82 36 67 14 190 38 202 40 4 0 7 -32 4 -72z" fill="#8077fe"/>
<path d="M4503 1166 c-180 -59 -287 -260 -254 -477 30 -191 143 -312 319 -339
137 -22 263 20 351 115 66 73 92 143 99 266 10 203 -64 347 -217 417 -46 22
-73 27 -156 29 -64 2 -115 -2 -142 -11z m201 -150 c43 -18 91 -77 107 -135 19
-64 17 -185 -5 -248 -19 -56 -77 -118 -121 -129 -14 -4 -48 -4 -75 -2 -63 6
-110 41 -141 105 -20 41 -23 64 -24 154 0 98 2 109 30 164 48 94 138 129 229
91z" fill="#8077fe"/>
<path d="M5499 1157 c-24 -13 -60 -44 -79 -70 l-35 -47 -3 65 -3 65 -94 0 -95
0 0 -560 0 -560 95 0 95 0 0 221 0 221 39 -50 c53 -67 107 -92 197 -92 89 0
151 21 208 71 89 79 129 185 129 344 0 197 -64 322 -198 386 -80 39 -189 41
-256 6z m152 -153 c36 -18 74 -65 91 -111 17 -50 17 -207 -1 -257 -47 -133
-201 -175 -296 -81 -95 96 -85 364 17 436 55 39 128 44 189 13z" fill="#8077fe"/>
<path d="M6694 1160 c-74 -24 -144 -82 -174 -146 -12 -25 -20 -48 -16 -51 3
-4 42 -12 86 -18 l80 -12 26 34 c94 124 315 68 280 -71 -8 -31 -40 -43 -156
-56 -172 -20 -247 -46 -299 -106 -78 -88 -66 -243 25 -323 111 -97 318 -86
409 23 l35 41 0 -57 0 -58 91 0 90 0 -3 318 c-3 305 -4 319 -25 358 -27 50
-72 90 -133 117 -67 30 -234 34 -316 7z m284 -493 c-3 -61 -8 -80 -30 -109
-40 -53 -87 -71 -170 -66 -62 3 -73 7 -94 31 -36 43 -34 107 6 140 16 14 53
30 82 36 67 14 190 38 202 40 4 0 7 -32 4 -72z" fill="#8077fe"/>
<path d="M2422 1153 c3 -10 54 -192 114 -405 l109 -388 101 0 101 0 72 263
c79 283 85 301 94 271 8 -26 122 -438 137 -492 l11 -43 101 3 101 3 108 380
c59 209 111 390 114 403 5 22 4 22 -93 22 l-98 0 -69 -280 c-38 -154 -72 -280
-75 -280 -3 0 -37 125 -75 278 l-71 277 -99 0 -99 0 -72 -280 c-40 -154 -73
-282 -74 -285 -1 -3 -34 123 -74 280 l-72 285 -98 3 c-91 3 -98 1 -94 -15z" fill="#8077fe"/>
<path d="M6125 487 c-4 -13 -5 -46 -3 -73 l3 -49 95 0 95 0 3 49 c6 94 4 96
-98 96 -85 0 -90 -1 -95 -23z" fill="#8077fe"/>
</g>
</svg>
